Coordinates
version=1
nRows=14
nColumns=40
inDegrees=yes

Units are S.I. units (second, meters, Newtons, ...)
If the header above contains a line with 'inDegrees', this indicates whether rotational values are in degrees (yes) or radians (no).

endheader
time	pelvis_tilt	pelvis_list	pelvis_rotation	pelvis_tx	pelvis_ty	pelvis_tz	hip_flexion_r	hip_adduction_r	hip_rotation_r	knee_angle_r	knee_angle_r_beta	ankle_angle_r	subtalar_angle_r	mtp_angle_r	hip_flexion_l	hip_adduction_l	hip_rotation_l	knee_angle_l	knee_angle_l_beta	ankle_angle_l	subtalar_angle_l	mtp_angle_l	lumbar_extension	lumbar_bending	lumbar_rotation	arm_flex_r	arm_add_r	arm_rot_r	elbow_flex_r	pro_sup_r	wrist_flex_r	wrist_dev_r	arm_flex_l	arm_add_l	arm_rot_l	elbow_flex_l	pro_sup_l	wrist_flex_l	wrist_dev_l
     45.35000000	     -1.67915214	      4.17387107	     12.19798963	      1.12973092	      0.86298484	     -0.48228199	     12.15165180	     -7.94736473	    -10.46166458	     85.62430322	      1.49442601	    -18.77107353	    -15.57772419	      0.00000000	     22.17204059	      6.61533309	     -1.28321275	     41.21236241	      0.71929142	     18.96842228	     17.84475382	      0.00000000	    -21.82359185	     -8.17859700	     -6.10929580	      0.00000000	    -14.99999965	      0.00000000	     75.00017585	     45.00000026	      0.00000000	      0.00000000	      0.00000000	    -14.99999965	      0.00000000	     75.00017585	     45.00000026	      0.00000000	      0.00000000
     45.36000000	     -1.73751170	      4.56906187	     11.84682570	      1.12723530	      0.86011579	     -0.48187975	     15.26071468	     -9.12023907	     -9.76644953	     87.35251049	      1.52458892	    -16.55505567	    -13.58761396	      0.00000000	     20.17332676	      6.11045357	     -2.63901036	     41.15716304	      0.71832801	     20.89858039	     18.44229896	      0.00000000	    -22.26319020	     -8.49636390	     -8.11045249	      0.00000000	    -14.99999966	      0.00000000	     75.00017585	     45.00000026	      0.00000000	      0.00000000	      0.00000000	    -14.99999966	      0.00000000	     75.00017585	     45.00000026	      0.00000000	      0.00000000
     45.37000000	     -1.69665009	      4.91561867	     11.28205746	      1.12510471	      0.85896792	     -0.48138132	     18.20030028	     -9.99419994	     -8.74974895	     88.28485010	      1.54086131	    -15.16604019	    -12.66413526	      0.00000000	     17.88488677	      5.69345306	     -3.76961936	     40.80906598	      0.71225257	     22.37213882	     18.70641830	      0.00000000	    -22.64318246	     -8.70787143	    -10.08864782	      0.00000000	    -14.99999966	      0.00000000	     75.00017585	     45.00000026	      0.00000000	      0.00000000	      0.00000000	    -14.99999966	      0.00000000	     75.00017585	     45.00000026	      0.00000000	      0.00000000
     45.38000000	     -1.68589140	      5.17779204	     10.59823637	      1.12367205	      0.85933218	     -0.48062328	     21.03087803	    -10.51237397	     -7.64175094	     88.31182748	      1.54133216	    -13.66138063	    -11.52045699	      0.00000000	     15.48307157	      5.28799020	     -4.81472815	     40.18771267	      0.70140790	     23.24194262	     18.86774467	      0.00000000	    -22.75925641	     -8.83774991	    -11.99804112	      0.00000000	    -14.99999966	      0.00000000	     75.00017585	     45.00000026	      0.00000000	      0.00000000	      0.00000000	    -14.99999966	      0.00000000	     75.00017585	     45.00000026	      0.00000000	      0.00000000
     45.39000000	     -1.80608143	      4.95914434	      9.82772967	      1.12194759	      0.86091306	     -0.48034971	     23.93355661	    -10.38629842	     -6.62612118	     87.52728793	      1.52763936	    -12.52383715	    -11.06004104	      0.00000000	     13.10530308	      4.68008836	     -5.16219812	     39.01293552	      0.68090418	     23.76345904	     18.95605511	      0.00000000	    -22.56080489	     -8.28906531	    -13.57785012	      0.00000000	    -14.99999966	      0.00000000	     75.00017585	     45.00000026	      0.00000000	      0.00000000	      0.00000000	    -14.99999966	      0.00000000	     75.00017585	     45.00000026	      0.00000000	      0.00000000
     45.40000000	     -2.23450702	      4.41966476	      9.26793993	      1.12036419	      0.86298810	     -0.48038075	     26.87889986	     -9.83069127	     -5.87120226	     86.04988236	      1.50185377	    -11.60904383	    -11.16463606	      0.00000000	     10.91467457	      4.04407143	     -4.85593840	     37.39519576	      0.65266929	     23.83844672	     18.94531479	      0.00000000	    -21.85514953	     -7.40392510	    -15.23241527	      0.00000000	    -14.99999966	      0.00000000	     75.00017585	     45.00000026	      0.00000000	      0.00000000	      0.00000000	    -14.99999966	      0.00000000	     75.00017585	     45.00000026	      0.00000000	      0.00000000
     45.41000000	     -2.79495780	      3.75169323	      8.64585743	      1.11953543	      0.86589909	     -0.48064397	     29.60605051	     -9.02063343	     -5.32411033	     83.69985797	      1.46083811	    -10.57787559	    -11.16318105	      0.00000000	      8.59374368	      3.43363015	     -4.42020626	     35.20110539	      0.61437519	     23.60466620	     18.91023436	      0.00000000	    -20.85458150	     -6.29488829	    -16.55434438	      0.00000000	    -14.99999966	      0.00000000	     75.00017585	     45.00000026	      0.00000000	      0.00000000	      0.00000000	    -14.99999966	      0.00000000	     75.00017585	     45.00000026	      0.00000000	      0.00000000
     45.42000000	     -2.90268100	      2.77504133	      8.09406738	      1.11926736	      0.87047541	     -0.48123617	     31.28167098	     -7.75836721	     -5.09468204	     80.46337699	      1.40435086	     -8.80958413	    -10.91455346	      0.00000000	      5.57017918	      2.54140865	     -3.88464662	     32.33930320	      0.56442732	     22.14695393	     18.79580357	      0.00000000	    -20.36835316	     -4.64985728	    -17.72831392	      0.00000000	    -14.99999966	      0.00000000	     75.00017585	     45.00000026	      0.00000000	      0.00000000	      0.00000000	    -14.99999966	      0.00000000	     75.00017585	     45.00000026	      0.00000000	      0.00000000
     45.43000000	     -3.80121005	      1.62789526	      7.60106312	      1.11891451	      0.87442881	     -0.48169789	     33.60918775	     -6.38085235	     -4.99416862	     76.73579961	      1.33929236	     -7.75940575	    -11.02199550	      0.00000000	      3.54525702	      1.64379096	     -3.18438724	     29.67101427	      0.51785689	     21.00670319	     18.61049714	      0.00000000	    -18.97029847	     -2.90678258	    -18.79875806	      0.00000000	    -14.99999966	      0.00000000	     75.00017585	     45.00000026	      0.00000000	      0.00000000	      0.00000000	    -14.99999966	      0.00000000	     75.00017585	     45.00000026	      0.00000000	      0.00000000
     45.44000000	     -4.28741228	      0.32306522	      7.09591607	      1.11928066	      0.87947772	     -0.48237282	     34.95741101	     -4.78919610	     -5.20325094	     72.18753779	      1.25991021	     -6.61823354	    -11.37214944	      0.00000000	      0.99036316	      0.54869928	     -2.73059079	     26.73426361	      0.46660092	     18.22465949	     18.31731807	      0.00000000	    -18.00606434	     -0.93417452	    -19.73060672	      0.00000000	    -14.99999966	      0.00000000	     75.00017585	     45.00000026	      0.00000000	      0.00000000	      0.00000000	    -14.99999966	      0.00000000	     75.00017585	     45.00000026	      0.00000000	      0.00000000
     45.45000000	     -4.48426000	     -0.99007326	      6.46801419	      1.12012106	      0.88530581	     -0.48280538	     35.66462312	     -3.05122452	     -5.30612473	     67.24715968	      1.17368435	     -5.64978150	    -12.13548578	      0.00000000	     -1.87366976	     -0.59462028	     -2.68633973	     23.67763945	      0.41325277	     14.22688109	     17.74635887	      0.00000000	    -17.38233233	      1.14515658	    -20.24035181	      0.00000000	    -14.99999966	      0.00000000	     75.00017585	     45.00000026	      0.00000000	      0.00000000	      0.00000000	    -14.99999966	      0.00000000	     75.00017585	     45.00000026	      0.00000000	      0.00000000
     45.46000000	     -5.12849039	     -2.27741927	      5.78528391	      1.12158034	      0.89066437	     -0.48284983	     36.44609716	     -1.26659544	     -5.40591591	     61.58780952	      1.07491006	     -5.68188472	    -13.60685359	      0.00000000	     -4.29312163	     -1.61833293	     -2.77902376	     20.43997236	      0.35674482	     10.05302247	     16.94060214	      0.00000000	    -16.25929756	      3.05490859	    -20.72195932	      0.00000000	    -14.99999967	      0.00000000	     75.00017585	     45.00000026	      0.00000000	      0.00000000	      0.00000000	    -14.99999967	      0.00000000	     75.00017585	     45.00000026	      0.00000000	      0.00000000
     45.47000000	     -5.98073053	     -3.57321792	      5.02764940	      1.12327013	      0.89553728	     -0.48293415	     37.19632291	      0.51028376	     -5.12307312	     55.67506503	      0.97171320	     -6.05787896	    -13.67559509	      0.00000000	     -6.24461213	     -2.58318688	     -2.99320077	     17.64498739	      0.30796313	      5.57097525	     15.70950844	      0.00000000	    -14.93818027	      5.13230737	    -20.75191136	      0.00000000	    -14.99999967	      0.00000000	     75.00017585	     45.00000026	      0.00000000	      0.00000000	      0.00000000	    -14.99999967	      0.00000000	     75.00017585	     45.00000026	      0.00000000	      0.00000000
     45.48000000	     -6.79976935	     -4.94441489	      4.35125742	      1.12596469	      0.89949211	     -0.48296621	     37.25335694	      2.45268660	     -5.53512748	     48.54399625	      0.84725257	     -6.65365528	    -15.66155240	      0.00000000	     -8.08349029	     -3.70696594	     -3.67538668	     15.12218681	      0.26393195	      0.44429197	     14.55275457	      0.00000000	    -13.51472655	      7.07076433	    -21.54487550	      0.00000000	    -14.99999967	      0.00000000	     75.00017585	     45.00000026	      0.00000000	      0.00000000	      0.00000000	    -14.99999967	      0.00000000	     75.00017585	     45.00000026	      0.00000000	      0.00000000
